{
  "accessors": [
    {
      "bufferView": 2,
      "componentType": 5126,
      "count": 154,
      "max": [
        22.09328269958496,
        27.33657455444336,
        26.285192489624023
      ],
      "min": [
        -23.2937068939209,
        -27.336576461791992,
        0.09238815307617188
      ],
      "type": "VEC3"
    },
    {
      "bufferView": 2,
      "byteOffset": 1848,
      "componentType": 5126,
      "count": 154,
      "max": [
        1.0,
        1.0,
        1.0
      ],
      "min": [
        -1.0,
        -1.0,
        -1.0
      ],
      "type": "VEC3"
    },
    {
      "bufferView": 3,
      "componentType": 5126,
      "count": 154,
      "max": [
        1.0,
        0.7097835540771484,
        0.9999668002128601,
        1.0
      ],
      "min": [
        -1.0,
        -0.3030048906803131,
        -1.0,
        -1.0
      ],
      "type": "VEC4"
    },
    {
      "bufferView": 1,
      "componentType": 5126,
      "count": 154,
      "max": [
        0.9987210631370544,
        0.9764410853385925
      ],
      "min": [
        0.0,
        0.0
      ],
      "type": "VEC2"
    },
    {
      "bufferView": 1,
      "byteOffset": 1232,
      "componentType": 5126,
      "count": 154,
      "max": [
        0.9987210631370544,
        0.9764410853385925
      ],
      "min": [
        0.0,
        0.0
      ],
      "type": "VEC2"
    },
    {
      "bufferView": 1,
      "byteOffset": 2464,
      "componentType": 5126,
      "count": 154,
      "max": [
        0.9987210631370544,
        0.9764410853385925
      ],
      "min": [
        0.0,
        0.0
      ],
      "type": "VEC2"
    },
    {
      "bufferView": 1,
      "byteOffset": 3696,
      "componentType": 5126,
      "count": 154,
      "max": [
        0.9987210631370544,
        0.9764410853385925
      ],
      "min": [
        0.0,
        0.0
      ],
      "type": "VEC2"
    },
    {
      "bufferView": 1,
      "byteOffset": 4928,
      "componentType": 5126,
      "count": 154,
      "max": [
        0.9987210631370544,
        0.9764410853385925
      ],
      "min": [
        0.0,
        0.0
      ],
      "type": "VEC2"
    },
    {
      "bufferView": 1,
      "byteOffset": 6160,
      "componentType": 5126,
      "count": 154,
      "max": [
        0.9987210631370544,
        0.9764410853385925
      ],
      "min": [
        0.0,
        0.0
      ],
      "type": "VEC2"
    },
    {
      "bufferView": 1,
      "byteOffset": 7392,
      "componentType": 5126,
      "count": 154,
      "max": [
        0.9987210631370544,
        0.9764410853385925
      ],
      "min": [
        0.0,
        0.0
      ],
      "type": "VEC2"
    },
    {
      "bufferView": 1,
      "byteOffset": 8624,
      "componentType": 5126,
      "count": 154,
      "max": [
        0.9987210631370544,
        0.9764410853385925
      ],
      "min": [
        0.0,
        0.0
      ],
      "type": "VEC2"
    },
    {
      "bufferView": 1,
      "byteOffset": 9856,
      "componentType": 5126,
      "count": 154,
      "max": [
        0.9987210631370544,
        0.9764410853385925
      ],
      "min": [
        0.0,
        0.0
      ],
      "type": "VEC2"
    },
    {
      "bufferView": 1,
      "byteOffset": 11088,
      "componentType": 5126,
      "count": 154,
      "max": [
        0.9987210631370544,
        0.9764410853385925
      ],
      "min": [
        0.0,
        0.0
      ],
      "type": "VEC2"
    },
    {
      "bufferView": 0,
      "componentType": 5125,
      "count": 324,
      "type": "SCALAR"
    },
    {
      "bufferView": 2,
      "byteOffset": 3696,
      "componentType": 5126,
      "count": 881,
      "max": [
        22.09328269958496,
        27.336572647094727,
        39.09989929199219
      ],
      "min": [
        -24.54713249206543,
        -27.33657455444336,
        24.969175338745117
      ],
      "type": "VEC3"
    },
    {
      "bufferView": 2,
      "byteOffset": 14268,
      "componentType": 5126,
      "count": 881,
      "max": [
        1.0,
        1.0,
        1.0
      ],
      "min": [
        -1.0,
        -1.0,
        -1.0
      ],
      "type": "VEC3"
    },
    {
      "bufferView": 3,
      "byteOffset": 2464,
      "componentType": 5126,
      "count": 881,
      "max": [
        1.0,
        0.7792632579803467,
        1.0,
        1.0
      ],
      "min": [
        -1.0,
        -1.0,
        -1.0,
        -1.0
      ],
      "type": "VEC4"
    },
    {
      "bufferView": 1,
      "byteOffset": 12320,
      "componentType": 5126,
      "count": 881,
      "max": [
        0.9604730010032654,
        0.9989352226257324
      ],
      "min": [
        0.0,
        0.0
      ],
      "type": "VEC2"
    },
    {
      "bufferView": 1,
      "byteOffset": 19368,
      "componentType": 5126,
      "count": 881,
      "max": [
        0.9604730010032654,
        0.9989352226257324
      ],
      "min": [
        0.0,
        0.0
      ],
      "type": "VEC2"
    },
    {
      "bufferView": 1,
      "byteOffset": 26416,
      "componentType": 5126,
      "count": 881,
      "max": [
        0.9604730010032654,
        0.9989352226257324
      ],
      "min": [
        0.0,
        0.0
      ],
      "type": "VEC2"
    },
    {
      "bufferView": 1,
      "byteOffset": 33464,
      "componentType": 5126,
      "count": 881,
      "max": [
        0.9604730010032654,
        0.9989352226257324
      ],
      "min": [
        0.0,
        0.0
      ],
      "type": "VEC2"
    },
    {
      "bufferView": 1,
      "byteOffset": 40512,
      "componentType": 5126,
      "count": 881,
      "max": [
        0.9604730010032654,
        0.9989352226257324
      ],
      "min": [
        0.0,
        0.0
      ],
      "type": "VEC2"
    },
    {
      "bufferView": 1,
      "byteOffset": 47560,
      "componentType": 5126,
      "count": 881,
      "max": [
        0.9604730010032654,
        0.9989352226257324
      ],
      "min": [
        0.0,
        0.0
      ],
      "type": "VEC2"
    },
    {
      "bufferView": 1,
      "byteOffset": 54608,
      "componentType": 5126,
      "count": 881,
      "max": [
        0.9604730010032654,
        0.9989352226257324
      ],
      "min": [
        0.0,
        0.0
      ],
      "type": "VEC2"
    },
    {
      "bufferView": 1,
      "byteOffset": 61656,
      "componentType": 5126,
      "count": 881,
      "max": [
        0.9604730010032654,
        0.9989352226257324
      ],
      "min": [
        0.0,
        0.0
      ],
      "type": "VEC2"
    },
    {
      "bufferView": 1,
      "byteOffset": 68704,
      "componentType": 5126,
      "count": 881,
      "max": [
        0.9604730010032654,
        0.9989352226257324
      ],
      "min": [
        0.0,
        0.0
      ],
      "type": "VEC2"
    },
    {
      "bufferView": 1,
      "byteOffset": 75752,
      "componentType": 5126,
      "count": 881,
      "max": [
        0.9604730010032654,
        0.9989352226257324
      ],
      "min": [
        0.0,
        0.0
      ],
      "type": "VEC2"
    },
    {
      "bufferView": 0,
      "byteOffset": 1296,
      "componentType": 5125,
      "count": 2577,
      "type": "SCALAR"
    },
    {
      "bufferView": 2,
      "byteOffset": 24840,
      "componentType": 5126,
      "count": 358,
      "max": [
        23.77018165588379,
        0.4672203063964844,
        24.866437911987305
      ],
      "min": [
        22.00118637084961,
        -0.4672203063964844,
        23.931989669799805
      ],
      "type": "VEC3"
    },
    {
      "bufferView": 2,
      "byteOffset": 29136,
      "componentType": 5126,
      "count": 358,
      "max": [
        1.0,
        1.0,
        1.0
      ],
      "min": [
        -1.0,
        -1.0,
        -1.0
      ],
      "type": "VEC3"
    },
    {
      "bufferView": 3,
      "byteOffset": 16560,
      "componentType": 5126,
      "count": 358,
      "max": [
        1.0,
        0.9999212026596069,
        0.9876904487609863,
        1.0
      ],
      "min": [
        -1.0,
        -0.9999216198921204,
        -0.9999216794967651,
        1.0
      ],
      "type": "VEC4"
    },
    {
      "bufferView": 1,
      "byteOffset": 82800,
      "componentType": 5126,
      "count": 358,
      "max": [
        0.560863196849823,
        0.32645729184150696
      ],
      "min": [
        0.5310912132263184,
        0.31549903750419617
      ],
      "type": "VEC2"
    },
    {
      "bufferView": 1,
      "byteOffset": 85664,
      "componentType": 5126,
      "count": 358,
      "max": [
        0.560863196849823,
        0.32645729184150696
      ],
      "min": [
        0.5310912132263184,
        0.31549903750419617
      ],
      "type": "VEC2"
    },
    {
      "bufferView": 1,
      "byteOffset": 88528,
      "componentType": 5126,
      "count": 358,
      "max": [
        0.560863196849823,
        0.32645729184150696
      ],
      "min": [
        0.5310912132263184,
        0.31549903750419617
      ],
      "type": "VEC2"
    },
    {
      "bufferView": 1,
      "byteOffset": 91392,
      "componentType": 5126,
      "count": 358,
      "max": [
        0.560863196849823,
        0.32645729184150696
      ],
      "min": [
        0.5310912132263184,
        0.31549903750419617
      ],
      "type": "VEC2"
    },
    {
      "bufferView": 1,
      "byteOffset": 94256,
      "componentType": 5126,
      "count": 358,
      "max": [
        0.560863196849823,
        0.32645729184150696
      ],
      "min": [
        0.5310912132263184,
        0.31549903750419617
      ],
      "type": "VEC2"
    },
    {
      "bufferView": 1,
      "byteOffset": 97120,
      "componentType": 5126,
      "count": 358,
      "max": [
        0.560863196849823,
        0.32645729184150696
      ],
      "min": [
        0.5310912132263184,
        0.31549903750419617
      ],
      "type": "VEC2"
    },
    {
      "bufferView": 1,
      "byteOffset": 99984,
      "componentType": 5126,
      "count": 358,
      "max": [
        0.560863196849823,
        0.32645729184150696
      ],
      "min": [
        0.5310912132263184,
        0.31549903750419617
      ],
      "type": "VEC2"
    },
    {
      "bufferView": 1,
      "byteOffset": 102848,
      "componentType": 5126,
      "count": 358,
      "max": [
        0.560863196849823,
        0.32645729184150696
      ],
      "min": [
        0.5310912132263184,
        0.31549903750419617
      ],
      "type": "VEC2"
    },
    {
      "bufferView": 1,
      "byteOffset": 105712,
      "componentType": 5126,
      "count": 358,
      "max": [
        0.560863196849823,
        0.32645729184150696
      ],
      "min": [
        0.5310912132263184,
        0.31549903750419617
      ],
      "type": "VEC2"
    },
    {
      "bufferView": 1,
      "byteOffset": 108576,
      "componentType": 5126,
      "count": 358,
      "max": [
        0.560863196849823,
        0.32645729184150696
      ],
      "min": [
        0.5310912132263184,
        0.31549903750419617
      ],
      "type": "VEC2"
    },
    {
      "bufferView": 0,
      "byteOffset": 11604,
      "componentType": 5125,
      "count": 1200,
      "type": "SCALAR"
    },
    {
      "bufferView": 2,
      "byteOffset": 33432,
      "componentType": 5126,
      "count": 280,
      "max": [
        23.807292938232422,
        0.9824223518371582,
        29.397541046142578
      ],
      "min": [
        21.48569679260254,
        -0.9845263957977295,
        23.679916381835938
      ],
      "type": "VEC3"
    },
    {
      "bufferView": 2,
      "byteOffset": 36792,
      "componentType": 5126,
      "count": 280,
      "max": [
        1.0,
        0.9997101426124573,
        0.9997101426124573
      ],
      "min": [
        -1.0,
        -0.9997101426124573,
        -0.9986444115638733
      ],
      "type": "VEC3"
    },
    {
      "bufferView": 3,
      "byteOffset": 22288,
      "componentType": 5126,
      "count": 280,
      "max": [
        1.0,
        0.9016962051391602,
        0.9908185005187988,
        1.0
      ],
      "min": [
        -0.6853373646736145,
        -0.9999916553497314,
        -0.9997444152832031,
        1.0
      ],
      "type": "VEC4"
    },
    {
      "bufferView": 1,
      "byteOffset": 111440,
      "componentType": 5126,
      "count": 280,
      "max": [
        0.7120369672775269,
        0.9305738806724548
      ],
      "min": [
        0.24428218603134155,
        0.29540273547172546
      ],
      "type": "VEC2"
    },
    {
      "bufferView": 1,
      "byteOffset": 113680,
      "componentType": 5126,
      "count": 280,
      "max": [
        0.7120369672775269,
        0.9305738806724548
      ],
      "min": [
        0.24428218603134155,
        0.29540273547172546
      ],
      "type": "VEC2"
    },
    {
      "bufferView": 1,
      "byteOffset": 115920,
      "componentType": 5126,
      "count": 280,
      "max": [
        0.7120369672775269,
        0.9305738806724548
      ],
      "min": [
        0.24428218603134155,
        0.29540273547172546
      ],
      "type": "VEC2"
    },
    {
      "bufferView": 1,
      "byteOffset": 118160,
      "componentType": 5126,
      "count": 280,
      "max": [
        0.7120369672775269,
        0.9305738806724548
      ],
      "min": [
        0.24428218603134155,
        0.29540273547172546
      ],
      "type": "VEC2"
    },
    {
      "bufferView": 1,
      "byteOffset": 120400,
      "componentType": 5126,
      "count": 280,
      "max": [
        0.7120369672775269,
        0.9305738806724548
      ],
      "min": [
        0.24428218603134155,
        0.29540273547172546
      ],
      "type": "VEC2"
    },
    {
      "bufferView": 1,
      "byteOffset": 122640,
      "componentType": 5126,
      "count": 280,
      "max": [
        0.7120369672775269,
        0.9305738806724548
      ],
      "min": [
        0.24428218603134155,
        0.29540273547172546
      ],
      "type": "VEC2"
    },
    {
      "bufferView": 1,
      "byteOffset": 124880,
      "componentType": 5126,
      "count": 280,
      "max": [
        0.7120369672775269,
        0.9305738806724548
      ],
      "min": [
        0.24428218603134155,
        0.29540273547172546
      ],
      "type": "VEC2"
    },
    {
      "bufferView": 1,
      "byteOffset": 127120,
      "componentType": 5126,
      "count": 280,
      "max": [
        0.7120369672775269,
        0.9305738806724548
      ],
      "min": [
        0.24428218603134155,
        0.29540273547172546
      ],
      "type": "VEC2"
    },
    {
      "bufferView": 1,
      "byteOffset": 129360,
      "componentType": 5126,
      "count": 280,
      "max": [
        0.7120369672775269,
        0.9305738806724548
      ],
      "min": [
        0.24428218603134155,
        0.29540273547172546
      ],
      "type": "VEC2"
    },
    {
      "bufferView": 1,
      "byteOffset": 131600,
      "componentType": 5126,
      "count": 280,
      "max": [
        0.7120369672775269,
        0.9305738806724548
      ],
      "min": [
        0.24428218603134155,
        0.29540273547172546
      ],
      "type": "VEC2"
    },
    {
      "bufferView": 0,
      "byteOffset": 16404,
      "componentType": 5125,
      "count": 816,
      "type": "SCALAR"
    }
  ],
  "asset": {
    "extras": {
      "author": "Thunder (https://sketchfab.com/thunderpwn)",
      "license": "CC-BY-SA-4.0 (http://creativecommons.org/licenses/by-sa/4.0/)",
      "source": "https://sketchfab.com/3d-models/medkit-38e725fbd2a24183a8f4563b68865e5f",
      "title": "MedKit"
    },
    "generator": "Sketchfab-12.66.0",
    "version": "2.0"
  },
  "bufferViews": [
    {
      "buffer": 0,
      "byteLength": 19668,
      "name": "floatBufferViews",
      "target": 34963
    },
    {
      "buffer": 0,
      "byteLength": 133840,
      "byteOffset": 19668,
      "byteStride": 8,
      "name": "floatBufferViews",
      "target": 34962
    },
    {
      "buffer": 0,
      "byteLength": 40152,
      "byteOffset": 153508,
      "byteStride": 12,
      "name": "floatBufferViews",
      "target": 34962
    },
    {
      "buffer": 0,
      "byteLength": 26768,
      "byteOffset": 193660,
      "byteStride": 16,
      "name": "floatBufferViews",
      "target": 34962
    }
  ],
  "buffers": [
    {
      "byteLength": 220428,
      "uri": "scene.bin"
    }
  ],
  "images": [
    {
      "uri": "textures/DefaultMaterial_baseColor.png"
    },
    {
      "uri": "textures/DefaultMaterial_metallicRoughness.png"
    },
    {
      "uri": "textures/DefaultMaterial_normal.png"
    }
  ],
  "materials": [
    {
      "doubleSided": true,
      "name": "DefaultMaterial",
      "normalTexture": {
        "index": 2
      },
      "pbrMetallicRoughness": {
        "baseColorTexture": {
          "index": 0
        },
        "metallicRoughnessTexture": {
          "index": 1
        }
      }
    }
  ],
  "meshes": [
    {
      "name": "Cube_DefaultMaterial_0",
      "primitives": [
        {
          "attributes": {
            "NORMAL": 1,
            "POSITION": 0,
            "TANGENT": 2,
            "TEXCOORD_0": 3,
            "TEXCOORD_1": 4,
            "TEXCOORD_2": 5,
            "TEXCOORD_3": 6,
            "TEXCOORD_4": 7,
            "TEXCOORD_5": 8,
            "TEXCOORD_6": 9,
            "TEXCOORD_7": 10,
            "TEXCOORD_8": 11,
            "TEXCOORD_9": 12
          },
          "indices": 13,
          "material": 0,
          "mode": 4
        }
      ]
    },
    {
      "name": "Cube.001_DefaultMaterial_0",
      "primitives": [
        {
          "attributes": {
            "NORMAL": 15,
            "POSITION": 14,
            "TANGENT": 16,
            "TEXCOORD_0": 17,
            "TEXCOORD_1": 18,
            "TEXCOORD_2": 19,
            "TEXCOORD_3": 20,
            "TEXCOORD_4": 21,
            "TEXCOORD_5": 22,
            "TEXCOORD_6": 23,
            "TEXCOORD_7": 24,
            "TEXCOORD_8": 25,
            "TEXCOORD_9": 26
          },
          "indices": 27,
          "material": 0,
          "mode": 4
        }
      ]
    },
    {
      "name": "Cylinder.002_DefaultMaterial_0",
      "primitives": [
        {
          "attributes": {
            "NORMAL": 29,
            "POSITION": 28,
            "TANGENT": 30,
            "TEXCOORD_0": 31,
            "TEXCOORD_1": 32,
            "TEXCOORD_2": 33,
            "TEXCOORD_3": 34,
            "TEXCOORD_4": 35,
            "TEXCOORD_5": 36,
            "TEXCOORD_6": 37,
            "TEXCOORD_7": 38,
            "TEXCOORD_8": 39,
            "TEXCOORD_9": 40
          },
          "indices": 41,
          "material": 0,
          "mode": 4
        }
      ]
    },
    {
      "name": "Cylinder.003_DefaultMaterial_0",
      "primitives": [
        {
          "attributes": {
            "NORMAL": 43,
            "POSITION": 42,
            "TANGENT": 44,
            "TEXCOORD_0": 45,
            "TEXCOORD_1": 46,
            "TEXCOORD_2": 47,
            "TEXCOORD_3": 48,
            "TEXCOORD_4": 49,
            "TEXCOORD_5": 50,
            "TEXCOORD_6": 51,
            "TEXCOORD_7": 52,
            "TEXCOORD_8": 53,
            "TEXCOORD_9": 54
          },
          "indices": 55,
          "material": 0,
          "mode": 4
        }
      ]
    }
  ],
  "nodes": [
    {
      "children": [
        1
      ],
      "matrix": [
        1.0,
        0.0,
        0.0,
        0.0,
        0.0,
        2.220446049250313e-16,
        -1.0,
        0.0,
        0.0,
        1.0,
        2.220446049250313e-16,
        0.0,
        0.0,
        0.0,
        0.0,
        1.0
      ],
      "name": "Sketchfab_model"
    },
    {
      "children": [
        2
      ],
      "matrix": [
        1.0,
        0.0,
        0.0,
        0.0,
        0.0,
        0.0,
        1.0,
        0.0,
        0.0,
        -1.0,
        0.0,
        0.0,
        0.0,
        0.0,
        0.0,
        1.0
      ],
      "name": "medicbox.fbx"
    },
    {
      "children": [
        3,
        5,
        7,
        9
      ],
      "name": "RootNode"
    },
    {
      "children": [
        4
      ],
      "matrix": [
        1.0,
        0.0,
        0.0,
        0.0,
        0.0,
        -1.331580541386046e-07,
        -0.9999999999999911,
        0.0,
        0.0,
        0.9999999999999911,
        -1.331580541386046e-07,
        0.0,
        0.0,
        0.0,
        0.0,
        1.0
      ],
      "name": "Cube"
    },
    {
      "mesh": 0,
      "name": "Cube_DefaultMaterial_0"
    },
    {
      "children": [
        6
      ],
      "matrix": [
        1.0,
        0.0,
        0.0,
        0.0,
        0.0,
        -1.331580541386046e-07,
        -0.9999999999999911,
        0.0,
        0.0,
        0.9999999999999911,
        -1.331580541386046e-07,
        0.0,
        0.0,
        0.0,
        0.0,
        1.0
      ],
      "name": "Cube.001"
    },
    {
      "mesh": 1,
      "name": "Cube.001_DefaultMaterial_0"
    },
    {
      "children": [
        8
      ],
      "matrix": [
        1.0,
        0.0,
        0.0,
        0.0,
        0.0,
        -1.331580541386046e-07,
        -0.9999999999999911,
        0.0,
        0.0,
        0.9999999999999911,
        -1.331580541386046e-07,
        0.0,
        0.0,
        0.0,
        0.0,
        1.0
      ],
      "name": "Cylinder.002"
    },
    {
      "mesh": 2,
      "name": "Cylinder.002_DefaultMaterial_0"
    },
    {
      "children": [
        10
      ],
      "matrix": [
        1.0,
        0.0,
        0.0,
        0.0,
        0.0,
        -1.331580541386046e-07,
        -0.9999999999999911,
        0.0,
        0.0,
        0.9999999999999911,
        -1.331580541386046e-07,
        0.0,
        0.0,
        0.0,
        0.0,
        1.0
      ],
      "name": "Cylinder.003"
    },
    {
      "mesh": 3,
      "name": "Cylinder.003_DefaultMaterial_0"
    }
  ],
  "samplers": [
    {
      "magFilter": 9729,
      "minFilter": 9987,
      "wrapS": 10497,
      "wrapT": 10497
    }
  ],
  "scene": 0,
  "scenes": [
    {
      "name": "Sketchfab_Scene",
      "nodes": [
        0
      ]
    }
  ],
  "textures": [
    {
      "sampler": 0,
      "source": 0
    },
    {
      "sampler": 0,
      "source": 1
    },
    {
      "sampler": 0,
      "source": 2
    }
  ]
}
