{
  "accessors": [
    {
      "bufferView": 2,
      "componentType": 5126,
      "count": 5373,
      "max": [
        21.320077896118164,
        17.056304931640625,
        23.219078063964844
      ],
      "min": [
        -25.338794708251953,
        -24.29983139038086,
        -24.9310359954834
      ],
      "type": "VEC3"
    },
    {
      "bufferView": 2,
      "byteOffset": 64476,
      "componentType": 5126,
      "count": 5373,
      "max": [
        0.9986610412597656,
        0.9993981122970581,
        0.9996503591537476
      ],
      "min": [
        -0.9980103969573975,
        -0.9979772567749023,
        -0.9937581419944763
      ],
      "type": "VEC3"
    },
    {
      "bufferView": 3,
      "componentType": 5126,
      "count": 5373,
      "max": [
        0.9997861385345459,
        0.9505582451820374,
        0.9772249460220337,
        1.0
      ],
      "min": [
        -0.998913049697876,
        -0.9994561672210693,
        -0.997255265712738,
        1.0
      ],
      "type": "VEC4"
    },
    {
      "bufferView": 1,
      "componentType": 5126,
      "count": 5373,
      "max": [
        0.9390919804573059,
        0.9900000095367432
      ],
      "min": [
        0.00864300038665533,
        0.009240000508725643
      ],
      "type": "VEC2"
    },
    {
      "bufferView": 1,
      "byteOffset": 42984,
      "componentType": 5126,
      "count": 5373,
      "max": [
        0.9390919804573059,
        0.9900000095367432
      ],
      "min": [
        0.00864300038665533,
        0.009240000508725643
      ],
      "type": "VEC2"
    },
    {
      "bufferView": 1,
      "byteOffset": 85968,
      "componentType": 5126,
      "count": 5373,
      "max": [
        0.9390919804573059,
        0.9900000095367432
      ],
      "min": [
        0.00864300038665533,
        0.009240000508725643
      ],
      "type": "VEC2"
    },
    {
      "bufferView": 0,
      "componentType": 5125,
      "count": 30204,
      "type": "SCALAR"
    }
  ],
  "asset": {
    "extras": {
      "author": "bunny (https://sketchfab.com/bunbunny)",
      "license": "CC-BY-4.0 (http://creativecommons.org/licenses/by/4.0/)",
      "source": "https://sketchfab.com/3d-models/boulder-3b2ecd29302f418d9bb8f13797d6838b",
      "title": "Boulder"
    },
    "generator": "Sketchfab-12.66.0",
    "version": "2.0"
  },
  "bufferViews": [
    {
      "buffer": 0,
      "byteLength": 120816,
      "name": "floatBufferViews",
      "target": 34963
    },
    {
      "buffer": 0,
      "byteLength": 128952,
      "byteOffset": 120816,
      "byteStride": 8,
      "name": "floatBufferViews",
      "target": 34962
    },
    {
      "buffer": 0,
      "byteLength": 128952,
      "byteOffset": 249768,
      "byteStride": 12,
      "name": "floatBufferViews",
      "target": 34962
    },
    {
      "buffer": 0,
      "byteLength": 85968,
      "byteOffset": 378720,
      "byteStride": 16,
      "name": "floatBufferViews",
      "target": 34962
    }
  ],
  "buffers": [
    {
      "byteLength": 464688,
      "uri": "scene.bin"
    }
  ],
  "extensionsRequired": [
    "KHR_materials_pbrSpecularGlossiness"
  ],
  "extensionsUsed": [
    "KHR_materials_pbrSpecularGlossiness"
  ],
  "images": [
    {
      "uri": "textures/Rock_Better_diffuse.png"
    },
    {
      "uri": "textures/Rock_Better_specularGlossiness.png"
    },
    {
      "uri": "textures/Rock_Better_normal.png"
    },
    {
      "uri": "textures/Rock_Better_occlusion.png"
    }
  ],
  "materials": [
    {
      "doubleSided": true,
      "extensions": {
        "KHR_materials_pbrSpecularGlossiness": {
          "diffuseFactor": [
            1.0,
            1.0,
            1.0,
            1.0
          ],
          "diffuseTexture": {
            "index": 0
          },
          "glossinessFactor": 1.0,
          "specularFactor": [
            1.0,
            1.0,
            1.0
          ],
          "specularGlossinessTexture": {
            "index": 1
          }
        }
      },
      "name": "Rock_Better",
      "normalTexture": {
        "index": 2
      },
      "occlusionTexture": {
        "index": 3
      }
    }
  ],
  "meshes": [
    {
      "name": "Volume5_Rock_Better_0",
      "primitives": [
        {
          "attributes": {
            "NORMAL": 1,
            "POSITION": 0,
            "TANGENT": 2,
            "TEXCOORD_0": 3,
            "TEXCOORD_1": 4,
            "TEXCOORD_2": 5
          },
          "indices": 6,
          "material": 0,
          "mode": 4
        }
      ]
    }
  ],
  "nodes": [
    {
      "children": [
        1
      ],
      "matrix": [
        0.02897946909070015,
        0.0,
        0.0,
        0.0,
        0.0,
        6.434734765181671e-18,
        -0.02897946909070015,
        0.0,
        0.0,
        0.02897946909070015,
        6.434734765181671e-18,
        0.0,
        0.0,
        0.0,
        0.0,
        1.0
      ],
      "name": "Sketchfab_model"
    },
    {
      "children": [
        2
      ],
      "matrix": [
        1.0,
        0.0,
        0.0,
        0.0,
        0.0,
        0.0,
        1.0,
        0.0,
        0.0,
        -1.0,
        0.0,
        0.0,
        0.0,
        0.0,
        0.0,
        1.0
      ],
      "name": "Rock_Better.Fbx"
    },
    {
      "children": [
        3
      ],
      "name": "RootNode"
    },
    {
      "children": [
        4
      ],
      "name": "Volume5"
    },
    {
      "mesh": 0,
      "name": "Volume5_Rock_Better_0"
    }
  ],
  "samplers": [
    {
      "magFilter": 9729,
      "minFilter": 9987,
      "wrapS": 10497,
      "wrapT": 10497
    }
  ],
  "scene": 0,
  "scenes": [
    {
      "name": "Sketchfab_Scene",
      "nodes": [
        0
      ]
    }
  ],
  "textures": [
    {
      "sampler": 0,
      "source": 0
    },
    {
      "sampler": 0,
      "source": 1
    },
    {
      "sampler": 0,
      "source": 2
    },
    {
      "sampler": 0,
      "source": 3
    }
  ]
}
